# xmcd
#
# Track frame offsets:
#	150
#	14799
#	32220
#	49854
#	76750
#	94048
#
# Disc length: 1503 seconds
#
# Revision: 1
# Processed by: cddbd v1.5.2PL0 Copyright (c) Steve Scherf et al.
# Submitted via: audiograbber 1.83.01
#
DISCID=4305dd06
DTITLE=Kirri's Travelin' Kitchen Jam - KIRRI'S TRAVELIN' KITCHEN JAM - 1/One
DYEAR=2014
DGENRE=Blues
TTITLE0=Bad Weather Blues
TTITLE1=Nothing Matters
TTITLE2=Going To Town
TTITLE3=Herman's Walk
TTITLE4=Sometimes Love
TTITLE5=These Days
EXTD=
EXTT0=
EXTT1=
EXTT2=
EXTT3=
EXTT4=
EXTT5=
PLAYORDER=
